<svg width="443" height="146" viewBox="0 0 443 146" fill="none" xmlns="http://www.w3.org/2000/svg">
<g filter="url(#filter0_d_0_1)">
<path d="M432 68.5778C432 34.5693 404.431 7 370.422 7H72.5778C38.5693 7 11 34.5693 11 68.5778C11 102.586 38.5693 130.156 72.5778 130.156H370.422C404.431 130.156 432 102.586 432 68.5778Z" fill="url(#paint0_linear_0_1)"/>
<path d="M144.065 50.9525L131.777 84.4565H123.617L111.329 50.9525H118.529L127.745 77.5925L136.913 50.9525H144.065ZM172.814 70.5845C172.814 71.5445 172.75 72.4085 172.622 73.1765H153.182C153.342 75.0965 154.014 76.6005 155.198 77.6885C156.382 78.7765 157.838 79.3205 159.566 79.3205C162.062 79.3205 163.838 78.2485 164.894 76.1045H172.142C171.374 78.6645 169.902 80.7765 167.726 82.4405C165.55 84.0725 162.878 84.8885 159.71 84.8885C157.15 84.8885 154.846 84.3285 152.798 83.2085C150.782 82.0565 149.198 80.4405 148.046 78.3605C146.926 76.2805 146.366 73.8805 146.366 71.1605C146.366 68.4085 146.926 65.9925 148.046 63.9125C149.166 61.8325 150.734 60.2325 152.75 59.1125C154.766 57.9925 157.086 57.4325 159.71 57.4325C162.238 57.4325 164.494 57.9765 166.478 59.0645C168.494 60.1525 170.046 61.7045 171.134 63.7205C172.254 65.7045 172.814 67.9925 172.814 70.5845ZM165.854 68.6645C165.822 66.9365 165.198 65.5605 163.982 64.5365C162.766 63.4805 161.278 62.9525 159.518 62.9525C157.854 62.9525 156.446 63.4645 155.294 64.4885C154.174 65.4805 153.486 66.8725 153.23 68.6645H165.854ZM184.439 61.9925C185.303 60.5845 186.423 59.4805 187.799 58.6805C189.207 57.8805 190.807 57.4805 192.599 57.4805V64.5365H190.823C188.711 64.5365 187.111 65.0325 186.023 66.0245C184.967 67.0165 184.439 68.7445 184.439 71.2085V84.4565H177.719V57.8645H184.439V61.9925ZM200.533 54.6965C199.349 54.6965 198.357 54.3285 197.557 53.5925C196.789 52.8245 196.405 51.8805 196.405 50.7605C196.405 49.6405 196.789 48.7125 197.557 47.9765C198.357 47.2085 199.349 46.8245 200.533 46.8245C201.717 46.8245 202.693 47.2085 203.461 47.9765C204.261 48.7125 204.661 49.6405 204.661 50.7605C204.661 51.8805 204.261 52.8245 203.461 53.5925C202.693 54.3285 201.717 54.6965 200.533 54.6965ZM203.845 57.8645V84.4565H197.125V57.8645H203.845ZM222.677 63.3845H218.021V84.4565H211.205V63.3845H208.181V57.8645H211.205V56.5205C211.205 53.2565 212.133 50.8565 213.989 49.3205C215.845 47.7845 218.645 47.0645 222.389 47.1605V52.8245C220.757 52.7925 219.621 53.0645 218.981 53.6405C218.341 54.2165 218.021 55.2565 218.021 56.7605V57.8645H222.677V63.3845ZM252.472 57.8645L236.008 97.0325H228.856L234.616 83.7845L223.96 57.8645H231.496L238.36 76.4405L245.32 57.8645H252.472Z" fill="white"/>
</g>
<path d="M331.125 106C328.891 106 326.979 105.189 325.389 103.568C323.796 101.944 323 99.9929 323 97.7143V56.2857C323 54.0071 323.796 52.0559 325.389 50.4319C326.979 48.8106 328.891 48 331.125 48H335.188V39.7143C335.188 33.9833 337.169 29.0975 341.131 25.0569C345.091 21.019 349.88 19 355.5 19C361.12 19 365.911 21.019 369.873 25.0569C373.833 29.0975 375.812 33.9833 375.812 39.7143V48H379.875C382.109 48 384.023 48.8106 385.615 50.4319C387.205 52.0559 388 54.0071 388 56.2857V97.7143C388 99.9929 387.205 101.944 385.615 103.568C384.023 105.189 382.109 106 379.875 106H331.125ZM355.5 85.2857C357.734 85.2857 359.648 84.4751 361.24 82.8539C362.83 81.2299 363.625 79.2786 363.625 77C363.625 74.7214 362.83 72.7701 361.24 71.1461C359.648 69.5249 357.734 68.7143 355.5 68.7143C353.266 68.7143 351.354 69.5249 349.764 71.1461C348.171 72.7701 347.375 74.7214 347.375 77C347.375 79.2786 348.171 81.2299 349.764 82.8539C351.354 84.4751 353.266 85.2857 355.5 85.2857ZM343.312 48H367.688V39.7143C367.688 36.2619 366.503 33.3274 364.133 30.9107C361.763 28.494 358.885 27.2857 355.5 27.2857C352.115 27.2857 349.237 28.494 346.867 30.9107C344.497 33.3274 343.312 36.2619 343.312 39.7143V48Z" fill="url(#paint1_linear_0_1)"/>
<defs>
<filter id="filter0_d_0_1" x="0" y="0" width="443" height="145.156" filterUnits="userSpaceOnUse" color-interpolation-filters="sRGB">
<feFlood flood-opacity="0" result="BackgroundImageFix"/>
<feColorMatrix in="SourceAlpha" type="matrix" values="0 0 0 0 0 0 0 0 0 0 0 0 0 0 0 0 0 0 127 0" result="hardAlpha"/>
<feOffset dy="4"/>
<feGaussianBlur stdDeviation="5.5"/>
<feComposite in2="hardAlpha" operator="out"/>
<feColorMatrix type="matrix" values="0 0 0 0 0 0 0 0 0 0 0 0 0 0 0 0 0 0 0.5 0"/>
<feBlend mode="normal" in2="BackgroundImageFix" result="effect1_dropShadow_0_1"/>
<feBlend mode="normal" in="SourceGraphic" in2="effect1_dropShadow_0_1" result="shape"/>
</filter>
<linearGradient id="paint0_linear_0_1" x1="445.728" y1="130.156" x2="-2.17015" y2="121.946" gradientUnits="userSpaceOnUse">
<stop stop-color="#F5F5F5"/>
<stop offset="0.541667" stop-color="#E96BF5"/>
<stop offset="1" stop-color="#0D11B4"/>
</linearGradient>
<linearGradient id="paint1_linear_0_1" x1="356" y1="-4.5" x2="355.5" y2="106" gradientUnits="userSpaceOnUse">
<stop stop-color="white"/>
<stop offset="0.432292" stop-color="#F052FF"/>
<stop offset="1" stop-color="#0D11B4"/>
</linearGradient>
</defs>
</svg>
